<?xml version="1.0" encoding="utf-8"?>
<!-- Generator: Adobe Illustrator 18.1.1, SVG Export Plug-In . SVG Version: 6.00 Build 0)  -->
<svg version="1.1" id="Capa_1" xmlns="http://www.w3.org/2000/svg" xmlns:xlink="http://www.w3.org/1999/xlink" x="0px" y="0px"
	 viewBox="0 0 131.5 41.5" enable-background="new 0 0 131.5 41.5" xml:space="preserve">
<g>
	<defs>
		<rect id="SVGID_1_" x="4.4" y="7.8" width="122.3" height="25.9"/>
	</defs>
	<clipPath id="SVGID_2_">
		<use xlink:href="#SVGID_1_"  overflow="visible"/>
	</clipPath>
	<path clip-path="url(#SVGID_2_)" fill="#AE9A64" d="M9.2,15.8c2.1,0,3.2-0.9,3.2-2.7c0-1.7-0.9-2.4-2.9-2.4H6.9v5.2H9.2z M6.9,23.2
		H4.4V8.3h5.3c3.5,0,5.6,1.9,5.6,4.9c0,1.7-0.8,3.2-2.2,4.2c-0.9,0.6-1.8,0.8-3.2,0.8H6.9V23.2z"/>
	<path clip-path="url(#SVGID_2_)" fill="#AE9A64" d="M23.2,15.3c1.9,0,3-0.9,3-2.4c0-1.4-1.1-2.3-2.9-2.3h-2.7v4.6H23.2z M20.5,23.2
		h-2.8V8.3h5.7c2.2,0,3.5,0.5,4.5,1.7c0.7,0.8,1.1,2,1.1,3.1c0,1.3-0.5,2.5-1.5,3.3c-0.4,0.3-0.7,0.5-1.4,0.9l3.3,6h-3.1l-3-5.5
		h-2.8V23.2z"/>
	<path clip-path="url(#SVGID_2_)" fill="#AE9A64" d="M38.5,10.4c-2.5,0-4.3,2.1-4.3,5.3c0,3.2,1.8,5.3,4.3,5.3s4.3-2.1,4.3-5.3
		C42.8,12.5,40.9,10.4,38.5,10.4 M38.5,23.6c-4,0-7.3-3.4-7.3-7.9c0-4.5,3.3-7.9,7.3-7.9c4,0,7.3,3.4,7.3,7.9
		C45.8,20.2,42.5,23.6,38.5,23.6"/>
</g>
<polygon fill="#AE9A64" points="60.7,23.2 58.2,23.2 51.2,13 51.2,23.2 48.5,23.2 48.5,8.3 51.2,8.3 58.1,18.4 58.1,8.3 60.7,8.3 
	"/>
<g>
	<defs>
		<rect id="SVGID_3_" x="4.4" y="7.8" width="122.3" height="25.9"/>
	</defs>
	<clipPath id="SVGID_4_">
		<use xlink:href="#SVGID_3_"  overflow="visible"/>
	</clipPath>
	<path clip-path="url(#SVGID_4_)" fill="#AE9A64" d="M70.8,10.4c-2.5,0-4.3,2.1-4.3,5.3c0,3.2,1.8,5.3,4.3,5.3
		c2.5,0,4.3-2.1,4.3-5.3C75.1,12.5,73.3,10.4,70.8,10.4 M70.8,23.6c-4,0-7.3-3.4-7.3-7.9c0-4.5,3.3-7.9,7.3-7.9c4,0,7.3,3.4,7.3,7.9
		C78.1,20.2,74.8,23.6,70.8,23.6"/>
</g>
<polygon fill="#AE9A64" points="83.7,23.2 79.2,8.3 82.1,8.3 85.5,20 88.8,8.3 91.6,8.3 87.3,23.2 "/>
<rect x="94.2" y="8.3" fill="#AE9A64" width="2.8" height="14.9"/>
<path fill="#AE9A64" d="M106,11l-2,6.8h4L106,11z M103.3,20.3l-0.9,2.9h-2.9l4.9-14.9h3.2l5,14.9h-3l-0.9-2.9H103.3z"/>
<g>
	<defs>
		<rect id="SVGID_5_" x="4.4" y="7.8" width="122.3" height="25.9"/>
	</defs>
	<clipPath id="SVGID_6_">
		<use xlink:href="#SVGID_5_"  overflow="visible"/>
	</clipPath>
	<path clip-path="url(#SVGID_6_)" fill="#AE9A64" d="M124.2,12.5c-0.7-0.9-1.1-1.3-1.8-1.7c-0.6-0.3-1.3-0.5-2.1-0.5
		c-1.5,0-2.7,0.8-2.7,1.8c0,0.9,0.5,1.3,2.2,1.6l2.2,0.5c1.6,0.4,2.6,0.8,3.3,1.4c0.9,0.8,1.4,1.8,1.4,3.1c0,2.9-2.5,4.8-6.1,4.8
		c-2,0-3.8-0.5-5-1.5c-0.6-0.5-0.9-0.8-1.6-1.7l2.4-1.7c0.6,0.9,1.2,1.5,2.1,1.8c0.7,0.3,1.6,0.5,2.4,0.5c1.7,0,2.8-0.8,2.8-2
		c0-1-0.7-1.6-2.5-1.9l-1.9-0.4c-3.1-0.7-4.5-1.9-4.5-4.3c0-2.7,2.3-4.6,5.6-4.6c1.8,0,3.4,0.5,4.7,1.6c0.5,0.4,0.7,0.7,1.4,1.4
		L124.2,12.5z"/>
	<path clip-path="url(#SVGID_6_)" fill="#AE9A64" d="M40.7,28.5h1.9c0.8,0,1.2,0.1,1.5,0.5c0.2,0.2,0.3,0.5,0.3,0.8
		c0,0.5-0.2,0.7-0.7,0.9c0.3,0.1,0.5,0.2,0.6,0.4c0.2,0.2,0.4,0.6,0.4,0.9c0,0.5-0.3,1-0.7,1.2c-0.3,0.1-0.6,0.2-1,0.2h-2.3V28.5z
		 M42.5,30.5c0.6,0,0.9-0.2,0.9-0.6c0-0.4-0.3-0.6-1.1-0.6h-0.8v1.2H42.5z M42.7,32.7c0.7,0,1-0.2,1-0.7c0-0.5-0.4-0.8-1-0.8h-1.1
		v1.5H42.7z"/>
</g>
<path fill="#AE9A64" d="M48.1,29.4l0.7,2.3h-1.3L48.1,29.4z M47.6,28.5l-1.6,5h1l0.3-1H49l0.3,1h1l-1.7-5H47.6z"/>
<g>
	<defs>
		<rect id="SVGID_7_" x="4.4" y="7.8" width="122.3" height="25.9"/>
	</defs>
	<clipPath id="SVGID_8_">
		<use xlink:href="#SVGID_7_"  overflow="visible"/>
	</clipPath>
	<path clip-path="url(#SVGID_8_)" fill="#AE9A64" d="M53,33.5h-0.9v-5H54c0.7,0,1.2,0.2,1.5,0.6c0.2,0.3,0.4,0.7,0.4,1
		c0,0.4-0.2,0.8-0.5,1.1c-0.1,0.1-0.2,0.2-0.5,0.3l1.1,2h-1l-1-1.8H53V33.5z M53.9,30.9c0.6,0,1-0.3,1-0.8c0-0.5-0.4-0.8-1-0.8H53
		v1.5H53.9z"/>
	<path clip-path="url(#SVGID_8_)" fill="#AE9A64" d="M61,30.2c-0.1-0.3-0.1-0.4-0.2-0.6c-0.2-0.2-0.5-0.4-0.9-0.4
		c-0.8,0-1.4,0.7-1.4,1.7c0,1.1,0.6,1.8,1.4,1.8c0.6,0,1-0.3,1.2-1l0.9,0.4c-0.5,1-1.1,1.5-2.1,1.5c-1.4,0-2.4-1.1-2.4-2.7
		c0-1.5,1-2.6,2.3-2.6c0.6,0,1.2,0.2,1.6,0.7c0.2,0.3,0.3,0.4,0.5,0.9L61,30.2z"/>
</g>
<polygon fill="#AE9A64" points="63.9,28.6 63.9,33.5 67.6,33.5 67.6,32.7 64.8,32.7 64.8,31.3 67.2,31.3 67.2,30.6 64.8,30.6 
	64.8,29.4 67.4,29.4 67.4,28.6 "/>
<g>
	<defs>
		<rect id="SVGID_9_" x="4.4" y="7.8" width="122.3" height="25.9"/>
	</defs>
	<clipPath id="SVGID_10_">
		<use xlink:href="#SVGID_9_"  overflow="visible"/>
	</clipPath>
	<path clip-path="url(#SVGID_10_)" fill="#AE9A64" d="M76.5,33.7c-1.3,0-2.4-1.1-2.4-2.6c0-1.5,1-2.6,2.4-2.6c1.3,0,2.4,1.2,2.4,2.6
		C78.9,32.5,77.9,33.7,76.5,33.7 M76.5,29.3c-0.8,0-1.4,0.7-1.4,1.8c0,1.1,0.6,1.8,1.4,1.8c0.8,0,1.4-0.7,1.4-1.8
		C77.9,30,77.4,29.3,76.5,29.3"/>
</g>
<polygon fill="#AE9A64" points="83.4,28.6 83.4,31.9 81.4,28.6 80.5,28.6 80.5,33.5 81.3,33.5 81.3,30.1 83.5,33.5 84.3,33.5 
	84.3,28.6 "/>
<path fill="#AE9A64" d="M88,29.5l0.7,2.3h-1.3L88,29.5z M87.5,28.6l-1.6,5h1l0.3-1h1.8l0.3,1h1l-1.7-5H87.5z"/>
<polygon fill="#AE9A64" points="69.8,28.6 69.8,33.5 72.8,33.5 72.8,32.7 70.7,32.7 70.7,28.6 "/>
</svg>
